solid ASCII
  facet normal 2.588190e-01 -9.659258e-01 5.884864e-16
    outer loop
      vertex   -2.080144e+02 -3.583300e+02 -7.500000e+01
      vertex   -2.080144e+02 -3.583300e+02 -1.000000e+02
      vertex   -2.045994e+02 -3.574150e+02 -7.750000e+01
    endloop
  endfacet
  facet normal 2.588190e-01 -9.659258e-01 -6.538738e-16
    outer loop
      vertex   -2.045994e+02 -3.574150e+02 -7.750000e+01
      vertex   -2.080144e+02 -3.583300e+02 -1.000000e+02
      vertex   -2.045994e+02 -3.574150e+02 -1.000000e+02
    endloop
  endfacet
  facet normal 6.123724e-01 -3.535534e-01 7.071068e-01
    outer loop
      vertex   -1.945994e+02 -3.400945e+02 -7.750000e+01
      vertex   -1.955144e+02 -3.366794e+02 -7.500000e+01
      vertex   -2.045994e+02 -3.574150e+02 -7.750000e+01
    endloop
  endfacet
  facet normal 6.123724e-01 -3.535534e-01 7.071068e-01
    outer loop
      vertex   -2.045994e+02 -3.574150e+02 -7.750000e+01
      vertex   -1.955144e+02 -3.366794e+02 -7.500000e+01
      vertex   -2.080144e+02 -3.583300e+02 -7.500000e+01
    endloop
  endfacet
  facet normal 9.659258e-01 2.588190e-01 -0.000000e+00
    outer loop
      vertex   -1.945994e+02 -3.400945e+02 -1.000000e+02
      vertex   -1.955144e+02 -3.366794e+02 -1.000000e+02
      vertex   -1.945994e+02 -3.400945e+02 -7.750000e+01
    endloop
  endfacet
  facet normal 9.659258e-01 2.588190e-01 6.154762e-15
    outer loop
      vertex   -1.945994e+02 -3.400945e+02 -7.750000e+01
      vertex   -1.955144e+02 -3.366794e+02 -1.000000e+02
      vertex   -1.955144e+02 -3.366794e+02 -7.500000e+01
    endloop
  endfacet
  facet normal 8.660254e-01 -5.000000e-01 0.000000e+00
    outer loop
      vertex   -1.945994e+02 -3.400945e+02 -1.000000e+02
      vertex   -1.945994e+02 -3.400945e+02 -7.750000e+01
      vertex   -2.045994e+02 -3.574150e+02 -1.000000e+02
    endloop
  endfacet
  facet normal 8.660254e-01 -5.000000e-01 -2.187904e-15
    outer loop
      vertex   -2.045994e+02 -3.574150e+02 -1.000000e+02
      vertex   -1.945994e+02 -3.400945e+02 -7.750000e+01
      vertex   -2.045994e+02 -3.574150e+02 -7.750000e+01
    endloop
  endfacet
  facet normal -5.000000e-01 -8.660254e-01 -1.136868e-15
    outer loop
      vertex   -2.080144e+02 -3.583300e+02 -7.500000e+01
      vertex   -2.123446e+02 -3.558300e+02 -8.750000e+01
      vertex   -2.080144e+02 -3.583300e+02 -1.000000e+02
    endloop
  endfacet
  facet normal -5.000000e-01 -8.660254e-01 -1.898857e-14
    outer loop
      vertex   -2.080144e+02 -3.583300e+02 -1.000000e+02
      vertex   -2.123446e+02 -3.558300e+02 -8.750000e+01
      vertex   -2.185295e+02 -3.522591e+02 -9.464178e+01
    endloop
  endfacet
  facet normal -5.000000e-01 -8.660254e-01 2.586043e-14
    outer loop
      vertex   -2.080144e+02 -3.583300e+02 -1.000000e+02
      vertex   -2.185295e+02 -3.522591e+02 -9.464178e+01
      vertex   -2.364705e+02 -3.419009e+02 -9.464178e+01
    endloop
  endfacet
  facet normal -5.000000e-01 -8.660254e-01 -1.037343e-14
    outer loop
      vertex   -2.364705e+02 -3.419009e+02 -9.464178e+01
      vertex   -2.185295e+02 -3.522591e+02 -9.464178e+01
      vertex   -2.302855e+02 -3.454718e+02 -8.750000e+01
    endloop
  endfacet
  facet normal -5.000000e-01 -8.660254e-01 -1.453804e-14
    outer loop
      vertex   -2.302855e+02 -3.454718e+02 -8.750000e+01
      vertex   -2.185295e+02 -3.522591e+02 -9.464178e+01
      vertex   -2.247145e+02 -3.486883e+02 -8.750000e+01
    endloop
  endfacet
  facet normal -5.000000e-01 -8.660254e-01 6.805039e-15
    outer loop
      vertex   -2.302855e+02 -3.454718e+02 -8.750000e+01
      vertex   -2.247145e+02 -3.486883e+02 -8.750000e+01
      vertex   -2.364705e+02 -3.419009e+02 -8.035822e+01
    endloop
  endfacet
  facet normal -5.000000e-01 -8.660254e-01 -9.220827e-15
    outer loop
      vertex   -2.364705e+02 -3.419009e+02 -8.035822e+01
      vertex   -2.247145e+02 -3.486883e+02 -8.750000e+01
      vertex   -2.185295e+02 -3.522591e+02 -8.035822e+01
    endloop
  endfacet
  facet normal -5.000000e-01 -8.660254e-01 7.809337e-15
    outer loop
      vertex   -2.364705e+02 -3.419009e+02 -8.035822e+01
      vertex   -2.185295e+02 -3.522591e+02 -8.035822e+01
      vertex   -2.305619e+02 -3.453123e+02 -7.500000e+01
    endloop
  endfacet
  facet normal -5.000000e-01 -8.660254e-01 4.688399e-14
    outer loop
      vertex   -2.305619e+02 -3.453123e+02 -7.500000e+01
      vertex   -2.185295e+02 -3.522591e+02 -8.035822e+01
      vertex   -2.244381e+02 -3.488478e+02 -7.500000e+01
    endloop
  endfacet
  facet normal -5.000000e-01 -8.660254e-01 7.134500e-15
    outer loop
      vertex   -2.305619e+02 -3.453123e+02 -7.500000e+01
      vertex   -2.244381e+02 -3.488478e+02 -7.500000e+01
      vertex   -2.275000e+02 -3.470800e+02 -7.250000e+01
    endloop
  endfacet
  facet normal -5.000000e-01 -8.660254e-01 8.144050e-15
    outer loop
      vertex   -2.123446e+02 -3.558300e+02 -8.750000e+01
      vertex   -2.080144e+02 -3.583300e+02 -7.500000e+01
      vertex   -2.185295e+02 -3.522591e+02 -8.035822e+01
    endloop
  endfacet
  facet normal -5.000000e-01 -8.660254e-01 3.069682e-14
    outer loop
      vertex   -2.185295e+02 -3.522591e+02 -8.035822e+01
      vertex   -2.080144e+02 -3.583300e+02 -7.500000e+01
      vertex   -2.244381e+02 -3.488478e+02 -7.500000e+01
    endloop
  endfacet
  facet normal -5.000000e-01 -8.660254e-01 5.803727e-15
    outer loop
      vertex   -2.305619e+02 -3.453123e+02 -7.500000e+01
      vertex   -2.469856e+02 -3.358300e+02 -7.500000e+01
      vertex   -2.364705e+02 -3.419009e+02 -8.035822e+01
    endloop
  endfacet
  facet normal -5.000000e-01 -8.660254e-01 -1.989820e-15
    outer loop
      vertex   -2.364705e+02 -3.419009e+02 -8.035822e+01
      vertex   -2.469856e+02 -3.358300e+02 -7.500000e+01
      vertex   -2.426554e+02 -3.383300e+02 -8.750000e+01
    endloop
  endfacet
  facet normal -5.000000e-01 -8.660254e-01 -1.975309e-15
    outer loop
      vertex   -2.426554e+02 -3.383300e+02 -8.750000e+01
      vertex   -2.469856e+02 -3.358300e+02 -7.500000e+01
      vertex   -2.469856e+02 -3.358300e+02 -1.000000e+02
    endloop
  endfacet
  facet normal -5.000000e-01 -8.660254e-01 -1.193892e-15
    outer loop
      vertex   -2.426554e+02 -3.383300e+02 -8.750000e+01
      vertex   -2.469856e+02 -3.358300e+02 -1.000000e+02
      vertex   -2.364705e+02 -3.419009e+02 -9.464178e+01
    endloop
  endfacet
  facet normal -5.000000e-01 -8.660254e-01 -1.768106e-14
    outer loop
      vertex   -2.364705e+02 -3.419009e+02 -9.464178e+01
      vertex   -2.469856e+02 -3.358300e+02 -1.000000e+02
      vertex   -2.080144e+02 -3.583300e+02 -1.000000e+02
    endloop
  endfacet
  facet normal -9.659258e-01 -2.588190e-01 0.000000e+00
    outer loop
      vertex   -2.479006e+02 -3.324150e+02 -1.000000e+02
      vertex   -2.469856e+02 -3.358300e+02 -1.000000e+02
      vertex   -2.479006e+02 -3.324150e+02 -7.750000e+01
    endloop
  endfacet
  facet normal -9.659258e-01 -2.588190e-01 -5.878426e-16
    outer loop
      vertex   -2.479006e+02 -3.324150e+02 -7.750000e+01
      vertex   -2.469856e+02 -3.358300e+02 -1.000000e+02
      vertex   -2.469856e+02 -3.358300e+02 -7.500000e+01
    endloop
  endfacet
  facet normal -6.123724e-01 3.535534e-01 7.071068e-01
    outer loop
      vertex   -2.344856e+02 -3.141794e+02 -7.500000e+01
      vertex   -2.379006e+02 -3.150945e+02 -7.750000e+01
      vertex   -2.469856e+02 -3.358300e+02 -7.500000e+01
    endloop
  endfacet
  facet normal -6.123724e-01 3.535534e-01 7.071068e-01
    outer loop
      vertex   -2.469856e+02 -3.358300e+02 -7.500000e+01
      vertex   -2.379006e+02 -3.150945e+02 -7.750000e+01
      vertex   -2.479006e+02 -3.324150e+02 -7.750000e+01
    endloop
  endfacet
  facet normal -2.588190e-01 9.659258e-01 -5.884864e-16
    outer loop
      vertex   -2.344856e+02 -3.141794e+02 -7.500000e+01
      vertex   -2.344856e+02 -3.141794e+02 -1.000000e+02
      vertex   -2.379006e+02 -3.150945e+02 -7.750000e+01
    endloop
  endfacet
  facet normal -2.588190e-01 9.659258e-01 -2.767227e-15
    outer loop
      vertex   -2.379006e+02 -3.150945e+02 -7.750000e+01
      vertex   -2.344856e+02 -3.141794e+02 -1.000000e+02
      vertex   -2.379006e+02 -3.150945e+02 -1.000000e+02
    endloop
  endfacet
  facet normal 5.000000e-01 8.660254e-01 8.181078e-15
    outer loop
      vertex   -1.955144e+02 -3.366794e+02 -1.000000e+02
      vertex   -1.998446e+02 -3.341794e+02 -8.750000e+01
      vertex   -1.955144e+02 -3.366794e+02 -7.500000e+01
    endloop
  endfacet
  facet normal 5.000000e-01 8.660254e-01 -1.705560e-15
    outer loop
      vertex   -1.955144e+02 -3.366794e+02 -7.500000e+01
      vertex   -1.998446e+02 -3.341794e+02 -8.750000e+01
      vertex   -2.060295e+02 -3.306085e+02 -8.035822e+01
    endloop
  endfacet
  facet normal 5.000000e-01 8.660254e-01 -1.230670e-14
    outer loop
      vertex   -1.955144e+02 -3.366794e+02 -7.500000e+01
      vertex   -2.060295e+02 -3.306085e+02 -8.035822e+01
      vertex   -2.119381e+02 -3.271972e+02 -7.500000e+01
    endloop
  endfacet
  facet normal 5.000000e-01 8.660254e-01 -6.661847e-16
    outer loop
      vertex   -2.119381e+02 -3.271972e+02 -7.500000e+01
      vertex   -2.060295e+02 -3.306085e+02 -8.035822e+01
      vertex   -2.122145e+02 -3.270376e+02 -8.750000e+01
    endloop
  endfacet
  facet normal 5.000000e-01 8.660254e-01 -5.840744e-16
    outer loop
      vertex   -2.119381e+02 -3.271972e+02 -7.500000e+01
      vertex   -2.122145e+02 -3.270376e+02 -8.750000e+01
      vertex   -2.180619e+02 -3.236616e+02 -7.500000e+01
    endloop
  endfacet
  facet normal 5.000000e-01 8.660254e-01 -6.516829e-15
    outer loop
      vertex   -2.180619e+02 -3.236616e+02 -7.500000e+01
      vertex   -2.122145e+02 -3.270376e+02 -8.750000e+01
      vertex   -2.177855e+02 -3.238212e+02 -8.750000e+01
    endloop
  endfacet
  facet normal 5.000000e-01 8.660254e-01 -6.747353e-15
    outer loop
      vertex   -2.180619e+02 -3.236616e+02 -7.500000e+01
      vertex   -2.177855e+02 -3.238212e+02 -8.750000e+01
      vertex   -2.239705e+02 -3.202503e+02 -8.035822e+01
    endloop
  endfacet
  facet normal 5.000000e-01 8.660254e-01 2.008297e-14
    outer loop
      vertex   -1.998446e+02 -3.341794e+02 -8.750000e+01
      vertex   -1.955144e+02 -3.366794e+02 -1.000000e+02
      vertex   -2.060295e+02 -3.306085e+02 -9.464178e+01
    endloop
  endfacet
  facet normal 5.000000e-01 8.660254e-01 1.072651e-14
    outer loop
      vertex   -2.060295e+02 -3.306085e+02 -9.464178e+01
      vertex   -1.955144e+02 -3.366794e+02 -1.000000e+02
      vertex   -2.344856e+02 -3.141794e+02 -1.000000e+02
    endloop
  endfacet
  facet normal 5.000000e-01 8.660254e-01 2.662856e-14
    outer loop
      vertex   -2.060295e+02 -3.306085e+02 -9.464178e+01
      vertex   -2.344856e+02 -3.141794e+02 -1.000000e+02
      vertex   -2.239705e+02 -3.202503e+02 -9.464178e+01
    endloop
  endfacet
  facet normal 5.000000e-01 8.660254e-01 5.969460e-15
    outer loop
      vertex   -2.239705e+02 -3.202503e+02 -9.464178e+01
      vertex   -2.344856e+02 -3.141794e+02 -1.000000e+02
      vertex   -2.301554e+02 -3.166794e+02 -8.750000e+01
    endloop
  endfacet
  facet normal 5.000000e-01 8.660254e-01 1.136868e-15
    outer loop
      vertex   -2.301554e+02 -3.166794e+02 -8.750000e+01
      vertex   -2.344856e+02 -3.141794e+02 -1.000000e+02
      vertex   -2.344856e+02 -3.141794e+02 -7.500000e+01
    endloop
  endfacet
  facet normal 5.000000e-01 8.660254e-01 -2.018246e-15
    outer loop
      vertex   -2.301554e+02 -3.166794e+02 -8.750000e+01
      vertex   -2.344856e+02 -3.141794e+02 -7.500000e+01
      vertex   -2.239705e+02 -3.202503e+02 -8.035822e+01
    endloop
  endfacet
  facet normal 5.000000e-01 8.660254e-01 -2.223597e-14
    outer loop
      vertex   -2.239705e+02 -3.202503e+02 -8.035822e+01
      vertex   -2.344856e+02 -3.141794e+02 -7.500000e+01
      vertex   -2.180619e+02 -3.236616e+02 -7.500000e+01
    endloop
  endfacet
  facet normal 5.000000e-01 8.660254e-01 4.702741e-14
    outer loop
      vertex   -2.180619e+02 -3.236616e+02 -7.500000e+01
      vertex   -2.150000e+02 -3.254294e+02 -7.250000e+01
      vertex   -2.119381e+02 -3.271972e+02 -7.500000e+01
    endloop
  endfacet
  facet normal 5.000000e-01 8.660254e-01 5.877080e-15
    outer loop
      vertex   -2.177855e+02 -3.238212e+02 -8.750000e+01
      vertex   -2.122145e+02 -3.270376e+02 -8.750000e+01
      vertex   -2.239705e+02 -3.202503e+02 -9.464178e+01
    endloop
  endfacet
  facet normal 5.000000e-01 8.660254e-01 8.452425e-15
    outer loop
      vertex   -2.239705e+02 -3.202503e+02 -9.464178e+01
      vertex   -2.122145e+02 -3.270376e+02 -8.750000e+01
      vertex   -2.060295e+02 -3.306085e+02 -9.464178e+01
    endloop
  endfacet
  facet normal 0.000000e+00 0.000000e+00 1.000000e+00
    outer loop
      vertex   -2.180619e+02 -3.236616e+02 -7.500000e+01
      vertex   -2.344856e+02 -3.141794e+02 -7.500000e+01
      vertex   -2.351372e+02 -3.282369e+02 -7.500000e+01
    endloop
  endfacet
  facet normal 0.000000e+00 -0.000000e+00 1.000000e+00
    outer loop
      vertex   -2.351372e+02 -3.282369e+02 -7.500000e+01
      vertex   -2.344856e+02 -3.141794e+02 -7.500000e+01
      vertex   -2.469856e+02 -3.358300e+02 -7.500000e+01
    endloop
  endfacet
  facet normal 0.000000e+00 0.000000e+00 1.000000e+00
    outer loop
      vertex   -2.351372e+02 -3.282369e+02 -7.500000e+01
      vertex   -2.469856e+02 -3.358300e+02 -7.500000e+01
      vertex   -2.305619e+02 -3.453123e+02 -7.500000e+01
    endloop
  endfacet
  facet normal 1.830127e-01 -6.830127e-01 7.071068e-01
    outer loop
      vertex   -2.104247e+02 -3.425047e+02 -7.250000e+01
      vertex   -2.275000e+02 -3.470800e+02 -7.250000e+01
      vertex   -2.073628e+02 -3.442725e+02 -7.500000e+01
    endloop
  endfacet
  facet normal 1.830127e-01 -6.830127e-01 7.071068e-01
    outer loop
      vertex   -2.073628e+02 -3.442725e+02 -7.500000e+01
      vertex   -2.275000e+02 -3.470800e+02 -7.250000e+01
      vertex   -2.244381e+02 -3.488478e+02 -7.500000e+01
    endloop
  endfacet
  facet normal 6.830127e-01 1.830127e-01 7.071068e-01
    outer loop
      vertex   -2.073628e+02 -3.442725e+02 -7.500000e+01
      vertex   -2.119381e+02 -3.271972e+02 -7.500000e+01
      vertex   -2.104247e+02 -3.425047e+02 -7.250000e+01
    endloop
  endfacet
  facet normal 6.830127e-01 1.830127e-01 7.071068e-01
    outer loop
      vertex   -2.104247e+02 -3.425047e+02 -7.250000e+01
      vertex   -2.119381e+02 -3.271972e+02 -7.500000e+01
      vertex   -2.150000e+02 -3.254294e+02 -7.250000e+01
    endloop
  endfacet
  facet normal 2.588190e-01 -9.659258e-01 1.261042e-15
    outer loop
      vertex   -2.275000e+02 -3.470800e+02 -7.250000e+01
      vertex   -2.104247e+02 -3.425047e+02 -7.250000e+01
      vertex   -2.275000e+02 -3.470800e+02 -5.500000e+01
    endloop
  endfacet
  facet normal 2.588190e-01 -9.659258e-01 -2.296821e-15
    outer loop
      vertex   -2.275000e+02 -3.470800e+02 -5.500000e+01
      vertex   -2.104247e+02 -3.425047e+02 -7.250000e+01
      vertex   -2.104247e+02 -3.425047e+02 -5.500000e+01
    endloop
  endfacet
  facet normal 9.659258e-01 2.588190e-01 3.978211e-15
    outer loop
      vertex   -2.104247e+02 -3.425047e+02 -7.250000e+01
      vertex   -2.150000e+02 -3.254294e+02 -7.250000e+01
      vertex   -2.104247e+02 -3.425047e+02 -5.500000e+01
    endloop
  endfacet
  facet normal 9.659258e-01 2.588190e-01 -1.410248e-14
    outer loop
      vertex   -2.104247e+02 -3.425047e+02 -5.500000e+01
      vertex   -2.150000e+02 -3.254294e+02 -7.250000e+01
      vertex   -2.150000e+02 -3.254294e+02 -5.500000e+01
    endloop
  endfacet
  facet normal -1.830127e-01 6.830127e-01 7.071068e-01
    outer loop
      vertex   -2.320753e+02 -3.300047e+02 -7.250000e+01
      vertex   -2.150000e+02 -3.254294e+02 -7.250000e+01
      vertex   -2.351372e+02 -3.282369e+02 -7.500000e+01
    endloop
  endfacet
  facet normal -1.830127e-01 6.830127e-01 7.071068e-01
    outer loop
      vertex   -2.351372e+02 -3.282369e+02 -7.500000e+01
      vertex   -2.150000e+02 -3.254294e+02 -7.250000e+01
      vertex   -2.180619e+02 -3.236616e+02 -7.500000e+01
    endloop
  endfacet
  facet normal -6.830127e-01 -1.830127e-01 7.071068e-01
    outer loop
      vertex   -2.351372e+02 -3.282369e+02 -7.500000e+01
      vertex   -2.305619e+02 -3.453123e+02 -7.500000e+01
      vertex   -2.320753e+02 -3.300047e+02 -7.250000e+01
    endloop
  endfacet
  facet normal -6.830127e-01 -1.830127e-01 7.071068e-01
    outer loop
      vertex   -2.320753e+02 -3.300047e+02 -7.250000e+01
      vertex   -2.305619e+02 -3.453123e+02 -7.500000e+01
      vertex   -2.275000e+02 -3.470800e+02 -7.250000e+01
    endloop
  endfacet
  facet normal -2.588190e-01 9.659258e-01 3.783127e-15
    outer loop
      vertex   -2.150000e+02 -3.254294e+02 -7.250000e+01
      vertex   -2.320753e+02 -3.300047e+02 -7.250000e+01
      vertex   -2.150000e+02 -3.254294e+02 -5.500000e+01
    endloop
  endfacet
  facet normal -2.588190e-01 9.659258e-01 -3.123677e-15
    outer loop
      vertex   -2.150000e+02 -3.254294e+02 -5.500000e+01
      vertex   -2.320753e+02 -3.300047e+02 -7.250000e+01
      vertex   -2.320753e+02 -3.300047e+02 -5.500000e+01
    endloop
  endfacet
  facet normal -9.659258e-01 -2.588190e-01 8.406948e-16
    outer loop
      vertex   -2.320753e+02 -3.300047e+02 -7.250000e+01
      vertex   -2.275000e+02 -3.470800e+02 -7.250000e+01
      vertex   -2.320753e+02 -3.300047e+02 -5.500000e+01
    endloop
  endfacet
  facet normal -9.659258e-01 -2.588190e-01 -4.731451e-15
    outer loop
      vertex   -2.320753e+02 -3.300047e+02 -5.500000e+01
      vertex   -2.275000e+02 -3.470800e+02 -7.250000e+01
      vertex   -2.275000e+02 -3.470800e+02 -5.500000e+01
    endloop
  endfacet
  facet normal -9.659258e-01 -2.588190e-01 -2.843879e-15
    outer loop
      vertex   -2.156269e+02 -3.337277e+02 -5.500000e+01
      vertex   -2.169469e+02 -3.288015e+02 -5.500000e+01
      vertex   -2.156269e+02 -3.337277e+02 -7.500000e+01
    endloop
  endfacet
  facet normal -9.659258e-01 -2.588190e-01 -3.483053e-15
    outer loop
      vertex   -2.156269e+02 -3.337277e+02 -7.500000e+01
      vertex   -2.169469e+02 -3.288015e+02 -5.500000e+01
      vertex   -2.169469e+02 -3.288015e+02 -7.500000e+01
    endloop
  endfacet
  facet normal 2.588190e-01 -9.659258e-01 -2.009718e-15
    outer loop
      vertex   -2.169469e+02 -3.288015e+02 -5.500000e+01
      vertex   -2.218731e+02 -3.301215e+02 -5.500000e+01
      vertex   -2.169469e+02 -3.288015e+02 -7.500000e+01
    endloop
  endfacet
  facet normal 2.588190e-01 -9.659258e-01 -2.377183e-15
    outer loop
      vertex   -2.169469e+02 -3.288015e+02 -7.500000e+01
      vertex   -2.218731e+02 -3.301215e+02 -5.500000e+01
      vertex   -2.218731e+02 -3.301215e+02 -7.500000e+01
    endloop
  endfacet
  facet normal 9.659258e-01 2.588190e-01 2.108271e-15
    outer loop
      vertex   -2.218731e+02 -3.301215e+02 -5.500000e+01
      vertex   -2.205531e+02 -3.350477e+02 -5.500000e+01
      vertex   -2.218731e+02 -3.301215e+02 -7.500000e+01
    endloop
  endfacet
  facet normal 9.659258e-01 2.588190e-01 3.483053e-15
    outer loop
      vertex   -2.218731e+02 -3.301215e+02 -7.500000e+01
      vertex   -2.205531e+02 -3.350477e+02 -5.500000e+01
      vertex   -2.205531e+02 -3.350477e+02 -7.500000e+01
    endloop
  endfacet
  facet normal -2.588190e-01 9.659258e-01 2.009718e-15
    outer loop
      vertex   -2.205531e+02 -3.350477e+02 -5.500000e+01
      vertex   -2.156269e+02 -3.337277e+02 -5.500000e+01
      vertex   -2.205531e+02 -3.350477e+02 -7.500000e+01
    endloop
  endfacet
  facet normal -2.588190e-01 9.659258e-01 5.120087e-15
    outer loop
      vertex   -2.205531e+02 -3.350477e+02 -7.500000e+01
      vertex   -2.156269e+02 -3.337277e+02 -5.500000e+01
      vertex   -2.156269e+02 -3.337277e+02 -7.500000e+01
    endloop
  endfacet
  facet normal -1.970312e-15 -3.412681e-15 1.000000e+00
    outer loop
      vertex   -2.205531e+02 -3.350477e+02 -7.500000e+01
      vertex   -2.156269e+02 -3.337277e+02 -7.500000e+01
      vertex   -2.218731e+02 -3.301215e+02 -7.500000e+01
    endloop
  endfacet
  facet normal -3.940624e-15 -6.825361e-15 1.000000e+00
    outer loop
      vertex   -2.218731e+02 -3.301215e+02 -7.500000e+01
      vertex   -2.156269e+02 -3.337277e+02 -7.500000e+01
      vertex   -2.169469e+02 -3.288015e+02 -7.500000e+01
    endloop
  endfacet
  facet normal 2.588190e-01 -9.659258e-01 -4.755045e-15
    outer loop
      vertex   -2.219469e+02 -3.374617e+02 -5.500000e+01
      vertex   -2.268731e+02 -3.387817e+02 -5.500000e+01
      vertex   -2.219469e+02 -3.374617e+02 -7.500000e+01
    endloop
  endfacet
  facet normal 2.588190e-01 -9.659258e-01 -5.120087e-15
    outer loop
      vertex   -2.219469e+02 -3.374617e+02 -7.500000e+01
      vertex   -2.268731e+02 -3.387817e+02 -5.500000e+01
      vertex   -2.268731e+02 -3.387817e+02 -7.500000e+01
    endloop
  endfacet
  facet normal 9.659258e-01 2.588190e-01 2.843879e-15
    outer loop
      vertex   -2.268731e+02 -3.387817e+02 -5.500000e+01
      vertex   -2.255531e+02 -3.437079e+02 -5.500000e+01
      vertex   -2.268731e+02 -3.387817e+02 -7.500000e+01
    endloop
  endfacet
  facet normal 9.659258e-01 2.588190e-01 3.474345e-15
    outer loop
      vertex   -2.268731e+02 -3.387817e+02 -7.500000e+01
      vertex   -2.255531e+02 -3.437079e+02 -5.500000e+01
      vertex   -2.255531e+02 -3.437079e+02 -7.500000e+01
    endloop
  endfacet
  facet normal -2.588190e-01 9.659258e-01 2.009718e-15
    outer loop
      vertex   -2.255531e+02 -3.437079e+02 -5.500000e+01
      vertex   -2.206269e+02 -3.423880e+02 -5.500000e+01
      vertex   -2.255531e+02 -3.437079e+02 -7.500000e+01
    endloop
  endfacet
  facet normal -2.588190e-01 9.659258e-01 2.377183e-15
    outer loop
      vertex   -2.255531e+02 -3.437079e+02 -7.500000e+01
      vertex   -2.206269e+02 -3.423880e+02 -5.500000e+01
      vertex   -2.206269e+02 -3.423880e+02 -7.500000e+01
    endloop
  endfacet
  facet normal -9.659258e-01 -2.588190e-01 -2.108271e-15
    outer loop
      vertex   -2.206269e+02 -3.423880e+02 -5.500000e+01
      vertex   -2.219469e+02 -3.374617e+02 -5.500000e+01
      vertex   -2.206269e+02 -3.423880e+02 -7.500000e+01
    endloop
  endfacet
  facet normal -9.659258e-01 -2.588190e-01 -4.214494e-15
    outer loop
      vertex   -2.206269e+02 -3.423880e+02 -7.500000e+01
      vertex   -2.219469e+02 -3.374617e+02 -5.500000e+01
      vertex   -2.219469e+02 -3.374617e+02 -7.500000e+01
    endloop
  endfacet
  facet normal -3.940624e-15 -6.825361e-15 1.000000e+00
    outer loop
      vertex   -2.219469e+02 -3.374617e+02 -7.500000e+01
      vertex   -2.268731e+02 -3.387817e+02 -7.500000e+01
      vertex   -2.206269e+02 -3.423880e+02 -7.500000e+01
    endloop
  endfacet
  facet normal -1.970312e-15 -3.412681e-15 1.000000e+00
    outer loop
      vertex   -2.206269e+02 -3.423880e+02 -7.500000e+01
      vertex   -2.268731e+02 -3.387817e+02 -7.500000e+01
      vertex   -2.255531e+02 -3.437079e+02 -7.500000e+01
    endloop
  endfacet
  facet normal -6.123724e-01 3.535534e-01 -7.071068e-01
    outer loop
      vertex   -2.302855e+02 -3.454718e+02 -8.750000e+01
      vertex   -2.364705e+02 -3.419009e+02 -8.035822e+01
      vertex   -2.177855e+02 -3.238212e+02 -8.750000e+01
    endloop
  endfacet
  facet normal -6.123724e-01 3.535534e-01 -7.071068e-01
    outer loop
      vertex   -2.177855e+02 -3.238212e+02 -8.750000e+01
      vertex   -2.364705e+02 -3.419009e+02 -8.035822e+01
      vertex   -2.239705e+02 -3.202503e+02 -8.035822e+01
    endloop
  endfacet
  facet normal -6.123724e-01 3.535534e-01 7.071068e-01
    outer loop
      vertex   -2.364705e+02 -3.419009e+02 -9.464178e+01
      vertex   -2.302855e+02 -3.454718e+02 -8.750000e+01
      vertex   -2.239705e+02 -3.202503e+02 -9.464178e+01
    endloop
  endfacet
  facet normal -6.123724e-01 3.535534e-01 7.071068e-01
    outer loop
      vertex   -2.239705e+02 -3.202503e+02 -9.464178e+01
      vertex   -2.302855e+02 -3.454718e+02 -8.750000e+01
      vertex   -2.177855e+02 -3.238212e+02 -8.750000e+01
    endloop
  endfacet
  facet normal 6.123724e-01 -3.535534e-01 7.071068e-01
    outer loop
      vertex   -2.426554e+02 -3.383300e+02 -8.750000e+01
      vertex   -2.364705e+02 -3.419009e+02 -9.464178e+01
      vertex   -2.301554e+02 -3.166794e+02 -8.750000e+01
    endloop
  endfacet
  facet normal 6.123724e-01 -3.535534e-01 7.071068e-01
    outer loop
      vertex   -2.301554e+02 -3.166794e+02 -8.750000e+01
      vertex   -2.364705e+02 -3.419009e+02 -9.464178e+01
      vertex   -2.239705e+02 -3.202503e+02 -9.464178e+01
    endloop
  endfacet
  facet normal 6.123724e-01 -3.535534e-01 -7.071068e-01
    outer loop
      vertex   -2.364705e+02 -3.419009e+02 -8.035822e+01
      vertex   -2.426554e+02 -3.383300e+02 -8.750000e+01
      vertex   -2.239705e+02 -3.202503e+02 -8.035822e+01
    endloop
  endfacet
  facet normal 6.123724e-01 -3.535534e-01 -7.071068e-01
    outer loop
      vertex   -2.239705e+02 -3.202503e+02 -8.035822e+01
      vertex   -2.426554e+02 -3.383300e+02 -8.750000e+01
      vertex   -2.301554e+02 -3.166794e+02 -8.750000e+01
    endloop
  endfacet
  facet normal -6.123724e-01 3.535534e-01 -7.071068e-01
    outer loop
      vertex   -2.123446e+02 -3.558300e+02 -8.750000e+01
      vertex   -2.185295e+02 -3.522591e+02 -8.035822e+01
      vertex   -1.998446e+02 -3.341794e+02 -8.750000e+01
    endloop
  endfacet
  facet normal -6.123724e-01 3.535534e-01 -7.071068e-01
    outer loop
      vertex   -1.998446e+02 -3.341794e+02 -8.750000e+01
      vertex   -2.185295e+02 -3.522591e+02 -8.035822e+01
      vertex   -2.060295e+02 -3.306085e+02 -8.035822e+01
    endloop
  endfacet
  facet normal -6.123724e-01 3.535534e-01 7.071068e-01
    outer loop
      vertex   -2.185295e+02 -3.522591e+02 -9.464178e+01
      vertex   -2.123446e+02 -3.558300e+02 -8.750000e+01
      vertex   -2.060295e+02 -3.306085e+02 -9.464178e+01
    endloop
  endfacet
  facet normal -6.123724e-01 3.535534e-01 7.071068e-01
    outer loop
      vertex   -2.060295e+02 -3.306085e+02 -9.464178e+01
      vertex   -2.123446e+02 -3.558300e+02 -8.750000e+01
      vertex   -1.998446e+02 -3.341794e+02 -8.750000e+01
    endloop
  endfacet
  facet normal 6.123724e-01 -3.535534e-01 7.071068e-01
    outer loop
      vertex   -2.247145e+02 -3.486883e+02 -8.750000e+01
      vertex   -2.185295e+02 -3.522591e+02 -9.464178e+01
      vertex   -2.122145e+02 -3.270376e+02 -8.750000e+01
    endloop
  endfacet
  facet normal 6.123724e-01 -3.535534e-01 7.071068e-01
    outer loop
      vertex   -2.122145e+02 -3.270376e+02 -8.750000e+01
      vertex   -2.185295e+02 -3.522591e+02 -9.464178e+01
      vertex   -2.060295e+02 -3.306085e+02 -9.464178e+01
    endloop
  endfacet
  facet normal 6.123724e-01 -3.535534e-01 -7.071068e-01
    outer loop
      vertex   -2.185295e+02 -3.522591e+02 -8.035822e+01
      vertex   -2.247145e+02 -3.486883e+02 -8.750000e+01
      vertex   -2.060295e+02 -3.306085e+02 -8.035822e+01
    endloop
  endfacet
  facet normal 6.123724e-01 -3.535534e-01 -7.071068e-01
    outer loop
      vertex   -2.060295e+02 -3.306085e+02 -8.035822e+01
      vertex   -2.247145e+02 -3.486883e+02 -8.750000e+01
      vertex   -2.122145e+02 -3.270376e+02 -8.750000e+01
    endloop
  endfacet
  facet normal -4.623586e-16 1.725546e-15 -1.000000e+00
    outer loop
      vertex   -2.344856e+02 -3.141794e+02 -1.000000e+02
      vertex   -1.955144e+02 -3.366794e+02 -1.000000e+02
      vertex   -2.379006e+02 -3.150945e+02 -1.000000e+02
    endloop
  endfacet
  facet normal -1.552991e-15 -4.161227e-16 -1.000000e+00
    outer loop
      vertex   -2.379006e+02 -3.150945e+02 -1.000000e+02
      vertex   -1.955144e+02 -3.366794e+02 -1.000000e+02
      vertex   -1.945994e+02 -3.400945e+02 -1.000000e+02
    endloop
  endfacet
  facet normal -9.845569e-16 5.684342e-16 -1.000000e+00
    outer loop
      vertex   -2.379006e+02 -3.150945e+02 -1.000000e+02
      vertex   -1.945994e+02 -3.400945e+02 -1.000000e+02
      vertex   -2.479006e+02 -3.324150e+02 -1.000000e+02
    endloop
  endfacet
  facet normal -9.845569e-16 5.684342e-16 -1.000000e+00
    outer loop
      vertex   -2.479006e+02 -3.324150e+02 -1.000000e+02
      vertex   -1.945994e+02 -3.400945e+02 -1.000000e+02
      vertex   -2.045994e+02 -3.574150e+02 -1.000000e+02
    endloop
  endfacet
  facet normal -1.552991e-15 -4.161227e-16 -1.000000e+00
    outer loop
      vertex   -2.479006e+02 -3.324150e+02 -1.000000e+02
      vertex   -2.045994e+02 -3.574150e+02 -1.000000e+02
      vertex   -2.469856e+02 -3.358300e+02 -1.000000e+02
    endloop
  endfacet
  facet normal -4.623586e-16 1.725546e-15 -1.000000e+00
    outer loop
      vertex   -2.469856e+02 -3.358300e+02 -1.000000e+02
      vertex   -2.045994e+02 -3.574150e+02 -1.000000e+02
      vertex   -2.080144e+02 -3.583300e+02 -1.000000e+02
    endloop
  endfacet
  facet normal 5.684342e-16 9.845569e-16 1.000000e+00
    outer loop
      vertex   -2.244381e+02 -3.488478e+02 -7.500000e+01
      vertex   -2.080144e+02 -3.583300e+02 -7.500000e+01
      vertex   -2.073628e+02 -3.442725e+02 -7.500000e+01
    endloop
  endfacet
  facet normal -1.179267e-14 1.557530e-15 1.000000e+00
    outer loop
      vertex   -2.073628e+02 -3.442725e+02 -7.500000e+01
      vertex   -2.080144e+02 -3.583300e+02 -7.500000e+01
      vertex   -1.955144e+02 -3.366794e+02 -7.500000e+01
    endloop
  endfacet
  facet normal -5.115908e-15 -8.861012e-15 1.000000e+00
    outer loop
      vertex   -2.073628e+02 -3.442725e+02 -7.500000e+01
      vertex   -1.955144e+02 -3.366794e+02 -7.500000e+01
      vertex   -2.119381e+02 -3.271972e+02 -7.500000e+01
    endloop
  endfacet
  facet normal -2.825127e-15 -3.433402e-15 1.000000e+00
    outer loop
      vertex   -2.104247e+02 -3.425047e+02 -5.500000e+01
      vertex   -2.206269e+02 -3.423880e+02 -5.500000e+01
      vertex   -2.275000e+02 -3.470800e+02 -5.500000e+01
    endloop
  endfacet
  facet normal -3.783155e-15 -2.030050e-15 1.000000e+00
    outer loop
      vertex   -2.275000e+02 -3.470800e+02 -5.500000e+01
      vertex   -2.206269e+02 -3.423880e+02 -5.500000e+01
      vertex   -2.255531e+02 -3.437079e+02 -5.500000e+01
    endloop
  endfacet
  facet normal 1.335028e-16 -4.291334e-15 1.000000e+00
    outer loop
      vertex   -2.275000e+02 -3.470800e+02 -5.500000e+01
      vertex   -2.255531e+02 -3.437079e+02 -5.500000e+01
      vertex   -2.268731e+02 -3.387817e+02 -5.500000e+01
    endloop
  endfacet
  facet normal -2.832843e-15 -4.107706e-15 1.000000e+00
    outer loop
      vertex   -2.206269e+02 -3.423880e+02 -5.500000e+01
      vertex   -2.104247e+02 -3.425047e+02 -5.500000e+01
      vertex   -2.156269e+02 -3.337277e+02 -5.500000e+01
    endloop
  endfacet
  facet normal -4.053609e-15 -4.831266e-15 1.000000e+00
    outer loop
      vertex   -2.156269e+02 -3.337277e+02 -5.500000e+01
      vertex   -2.104247e+02 -3.425047e+02 -5.500000e+01
      vertex   -2.150000e+02 -3.254294e+02 -5.500000e+01
    endloop
  endfacet
  facet normal -2.359256e-15 -4.959267e-15 1.000000e+00
    outer loop
      vertex   -2.156269e+02 -3.337277e+02 -5.500000e+01
      vertex   -2.150000e+02 -3.254294e+02 -5.500000e+01
      vertex   -2.169469e+02 -3.288015e+02 -5.500000e+01
    endloop
  endfacet
  facet normal -3.115223e-15 -4.522809e-15 1.000000e+00
    outer loop
      vertex   -2.169469e+02 -3.288015e+02 -5.500000e+01
      vertex   -2.150000e+02 -3.254294e+02 -5.500000e+01
      vertex   -2.218731e+02 -3.301215e+02 -5.500000e+01
    endloop
  endfacet
  facet normal -2.157194e-15 -5.926161e-15 1.000000e+00
    outer loop
      vertex   -2.218731e+02 -3.301215e+02 -5.500000e+01
      vertex   -2.150000e+02 -3.254294e+02 -5.500000e+01
      vertex   -2.320753e+02 -3.300047e+02 -5.500000e+01
    endloop
  endfacet
  facet normal -2.140956e-15 -4.507167e-15 1.000000e+00
    outer loop
      vertex   -2.218731e+02 -3.301215e+02 -5.500000e+01
      vertex   -2.320753e+02 -3.300047e+02 -5.500000e+01
      vertex   -2.268731e+02 -3.387817e+02 -5.500000e+01
    endloop
  endfacet
  facet normal -1.560850e-15 -4.163333e-15 1.000000e+00
    outer loop
      vertex   -2.268731e+02 -3.387817e+02 -5.500000e+01
      vertex   -2.320753e+02 -3.300047e+02 -5.500000e+01
      vertex   -2.275000e+02 -3.470800e+02 -5.500000e+01
    endloop
  endfacet
  facet normal -1.592144e-15 -4.824024e-15 1.000000e+00
    outer loop
      vertex   -2.156269e+02 -3.337277e+02 -5.500000e+01
      vertex   -2.205531e+02 -3.350477e+02 -5.500000e+01
      vertex   -2.206269e+02 -3.423880e+02 -5.500000e+01
    endloop
  endfacet
  facet normal -1.845038e-15 -4.821482e-15 1.000000e+00
    outer loop
      vertex   -2.206269e+02 -3.423880e+02 -5.500000e+01
      vertex   -2.205531e+02 -3.350477e+02 -5.500000e+01
      vertex   -2.219469e+02 -3.374617e+02 -5.500000e+01
    endloop
  endfacet
  facet normal -3.551378e-15 -3.836326e-15 1.000000e+00
    outer loop
      vertex   -2.219469e+02 -3.374617e+02 -5.500000e+01
      vertex   -2.205531e+02 -3.350477e+02 -5.500000e+01
      vertex   -2.218731e+02 -3.301215e+02 -5.500000e+01
    endloop
  endfacet
  facet normal -3.298484e-15 -3.838868e-15 1.000000e+00
    outer loop
      vertex   -2.219469e+02 -3.374617e+02 -5.500000e+01
      vertex   -2.218731e+02 -3.301215e+02 -5.500000e+01
      vertex   -2.268731e+02 -3.387817e+02 -5.500000e+01
    endloop
  endfacet
  facet normal -8.660254e-01 5.000000e-01 -2.357139e-15
    outer loop
      vertex   -2.379006e+02 -3.150945e+02 -7.750000e+01
      vertex   -2.379006e+02 -3.150945e+02 -1.000000e+02
      vertex   -2.479006e+02 -3.324150e+02 -7.750000e+01
    endloop
  endfacet
  facet normal -8.660254e-01 5.000000e-01 0.000000e+00
    outer loop
      vertex   -2.479006e+02 -3.324150e+02 -7.750000e+01
      vertex   -2.379006e+02 -3.150945e+02 -1.000000e+02
      vertex   -2.479006e+02 -3.324150e+02 -1.000000e+02
    endloop
  endfacet
endsolid
